<svg width="1440" height="782" viewBox="0 0 1440 782" fill="none" xmlns="http://www.w3.org/2000/svg">
<g style="mix-blend-mode:screen">
<path d="M1656.16 550.059C1645.09 574.101 1620.87 599.312 1583.5 625.69C1546.13 652.068 1515.18 665.291 1490.64 665.36C1477 665.36 1470.23 660.105 1470.23 649.389C1470.83 642.341 1473.03 635.511 1476.68 629.399L1540.14 489.163C1554.48 459.245 1562.29 426.757 1563.09 393.749C1563.09 333.368 1533.37 303.211 1473.93 303.28C1445.91 303.28 1388.59 311.935 1355.48 329.246L1518.67 -25.5176H1360.03L1045.92 662.269C1001.61 686.586 961.317 698.95 926.099 698.95C1001.61 646.813 1039.37 594.297 1039.37 541.404C1039.37 500.944 1008.84 443.86 947.78 370.153C974.316 338.89 997.758 305.253 1017.79 269.689C1023.22 257.935 1026.27 245.27 1026.78 232.389C1026.78 206.011 1005 192.719 961.74 192.719C910.905 192.719 870.575 225.005 840.751 289.576C828.067 316.026 821.222 344.775 820.657 373.965C820.547 383.173 821.866 392.344 824.57 401.167C801.441 432.263 776.14 461.767 748.846 489.472L749.586 487.823C749.111 488.679 748.581 489.505 748 490.296C689.308 549.204 624.88 602.416 555.624 649.183C538.655 658.872 519.533 664.422 499.888 665.36C487.092 665.36 480.852 660.105 480.852 649.389C481.066 642.45 482.797 635.635 485.928 629.399C520.617 553.356 546.493 496.307 563.556 458.251L619.714 335.428H502.215L490.687 360.261C468.548 332.784 436.82 319.045 395.504 319.045C339.451 319.045 285.937 341.782 234.961 387.257C190.708 427.867 155.595 476.99 131.845 531.512L114.078 570.049C100.649 598.241 90.4351 627.784 83.6189 658.147C60.0185 668.932 34.3775 674.826 8.31818 675.458C-17.8044 675.458 -31.0244 666.287 -31.0244 648.152C-30.9144 640.481 -28.9966 632.936 -25.4191 626.102L40.7864 481.023L95.887 360.57V359.746C116.299 313.584 139.989 263.301 158.708 222.498L207.252 117.604L224.491 79.9944L225.231 78.861L273.351 -26.2389C264.335 -27.3488 255.259 -27.9337 246.171 -27.9906C201.937 -28.3718 158.407 -17.1997 120.106 4.36372C79.0343 27.9036 46.618 63.4517 27.4606 105.96L-209.335 623.217C-214.375 634.605 -216.967 646.879 -216.95 659.28C-217.487 676.553 -213.717 693.695 -205.962 709.237C-198.207 724.778 -186.699 738.255 -172.425 748.512C-143.47 769.712 -107.941 780.62 -71.7419 779.424C-14.7225 778.064 41.1016 763.212 90.9163 736.148C109.248 766.647 150.565 781.931 214.866 782C253.184 781.965 290.065 767.791 318.088 742.33C322.212 767.059 337.97 779.63 365.151 779.63C403.061 778.921 440.574 771.953 476.093 759.022V760.568C565.988 725.809 625.919 691.909 655.884 658.868V662.578C655.884 740.407 711.936 779.287 824.041 779.218C887.503 778.961 950.352 767.113 1009.33 744.288L993.362 779.218H1151.26L1315.61 416.108C1324.07 397.87 1364.9 388.803 1384.46 388.803C1395.04 388.803 1401.06 393.336 1401.06 402.404C1400.87 406.628 1400.02 410.798 1398.53 414.769L1286 658.044C1279.33 674.101 1275.75 691.214 1275.42 708.533C1275.06 721.337 1278.62 733.957 1285.64 744.784C1292.67 755.611 1302.84 764.154 1314.87 769.326C1327.41 775.858 1341.37 779.389 1355.59 779.63C1415.03 779.63 1479.57 760.568 1549.23 722.443C1621.86 682.808 1668.78 640.39 1690 595.19V593.954L1656.16 550.059ZM425.962 386.742L291.859 680.919C274.409 718.94 254.949 738.002 233.268 738.002C221 738.002 201.541 730.996 201.541 717.394C202.029 702.355 205.626 687.566 212.117 673.912L343.153 388.7C351.296 369.74 380.063 360.158 402.695 360.158C420.146 360.158 429.029 366.134 429.029 378.19C428.566 381.202 427.525 384.104 425.962 386.742ZM872.585 610.955C849.106 661.444 812.936 686.723 764.075 686.792C747.788 686.792 739.645 672.401 739.645 643.618C739.713 628.043 741.774 612.536 745.779 597.457C801.691 535.015 843.995 488.373 872.691 457.53C884.853 473.501 890.987 496.169 890.987 526.154C891.035 555.366 884.765 584.261 872.585 610.955ZM900.822 304.105C900.696 293.095 902.93 282.18 907.38 272.059C910.599 264.552 916.162 258.223 923.281 253.969C930.399 249.716 938.712 247.753 947.04 248.36C957.615 248.36 962.48 251.245 962.48 257.016C962.48 265.465 942.598 289.885 902.938 329.864C901.603 321.338 900.896 312.729 900.822 304.105Z" fill="white" fill-opacity="0.175"/>
</g>
</svg>
